<?xml version="1.0" standalone="no"?>
<!DOCTYPE svg PUBLIC "-//W3C//DTD SVG 20010904//EN"
 "http://www.w3.org/TR/2001/REC-SVG-20010904/DTD/svg10.dtd">
<svg version="1.0" xmlns="http://www.w3.org/2000/svg"
 width="50.000000pt" height="50.000000pt" viewBox="0 0 50.000000 50.000000"
 preserveAspectRatio="xMidYMid meet">

<g transform="translate(0.000000,50.000000) scale(0.100000,-0.100000)"
fill="#000000" stroke="none">
<path d="M32 484 c-13 -9 -22 -26 -22 -42 l0 -27 20 33 c21 34 55 43 78 20 19
-19 14 -42 -13 -68 -25 -23 -35 -70 -15 -70 6 0 10 7 10 16 0 9 11 29 25 46
30 36 32 61 5 88 -24 24 -57 26 -88 4z"/>
<path d="M465 440 c-10 -11 -23 -20 -29 -20 -12 0 -375 -186 -389 -199 -4 -4
13 -28 38 -53 25 -25 45 -50 45 -55 0 -5 -16 -24 -35 -43 -27 -26 -38 -31 -47
-22 -9 9 -9 15 0 24 7 7 12 19 12 27 0 11 -4 10 -20 -4 -23 -20 -26 -45 -8
-63 20 -20 42 -14 77 22 40 41 58 38 107 -16 19 -22 37 -38 39 -36 8 8 205
390 205 397 0 4 9 16 20 26 21 19 26 35 12 35 -5 0 -17 -9 -27 -20z m-116
-217 c-50 -98 -93 -180 -95 -182 -7 -9 -92 68 -148 134 l-34 39 177 93 c97 51
180 92 184 93 5 0 -33 -80 -84 -177z"/>
<path d="M60 295 c0 -8 7 -15 15 -15 8 0 15 7 15 15 0 8 -7 15 -15 15 -8 0
-15 -7 -15 -15z"/>
</g>
</svg>
